{
    "asset" : {
        "generator" : "Khronos glTF Blender I/O v1.7.33",
        "version" : "2.0"
    },
    "scene" : 0,
    "scenes" : [
        {
            "name" : "Scene",
            "nodes" : [
                3
            ]
        }
    ],
    "nodes" : [
        {
            "mesh" : 0,
            "name" : "windBez",
            "rotation" : [
                -0.005751640535891056,
                0.8811073303222656,
                -0.011442335322499275,
                0.47274288535118103
            ],
            "scale" : [
                18.251619338989258,
                1.9774281978607178,
                5.0980658531188965
            ],
            "translation" : [
                -13.408732414245605,
                0.19247335195541382,
                -8.521381378173828
            ]
        },
        {
            "mesh" : 1,
            "name" : "windBez.001",
            "rotation" : [
                0.3817461431026459,
                0.22211501002311707,
                -0.8899878859519958,
                0.1133863776922226
            ],
            "scale" : [
                18.251497268676758,
                1.9842593669891357,
                5.080938816070557
            ],
            "translation" : [
                -5.764454364776611,
                1.5164862871170044,
                -14.944915771484375
            ]
        },
        {
            "mesh" : 2,
            "name" : "windBez.002",
            "rotation" : [
                0.1915576159954071,
                0.7742338180541992,
                -0.4549396336078644,
                0.396103173494339
            ],
            "scale" : [
                17.824298858642578,
                7.593817234039307,
                10.677423477172852
            ],
            "translation" : [
                -12.535161972045898,
                4.535193920135498,
                -6.983359336853027
            ]
        },
        {
            "children" : [
                0,
                1,
                2
            ],
            "name" : "wind_wisp",
            "rotation" : [
                0,
                0.9395715594291687,
                0,
                0.34235259890556335
            ],
            "scale" : [
                0.19661810994148254,
                0.1995214819908142,
                0.19661810994148254
            ],
            "translation" : [
                -0.0034529403783380985,
                -0.0018106562783941627,
                -0.008733570575714111
            ]
        }
    ],
    "materials" : [
        {
            "alphaMode" : "BLEND",
            "doubleSided" : true,
            "emissiveFactor" : [
                1,
                1,
                1
            ],
            "name" : "windTxt",
            "pbrMetallicRoughness" : {}
        }
    ],
    "meshes" : [
        {
            "name" : "BezierCurve",
            "primitives" : [
                {
                    "attributes" : {
                        "POSITION" : 0,
                        "NORMAL" : 1,
                        "TEXCOORD_0" : 2
                    },
                    "indices" : 3,
                    "material" : 0
                }
            ]
        },
        {
            "name" : "BezierCurve.001",
            "primitives" : [
                {
                    "attributes" : {
                        "POSITION" : 4,
                        "NORMAL" : 5,
                        "TEXCOORD_0" : 6
                    },
                    "indices" : 7,
                    "material" : 0
                }
            ]
        },
        {
            "name" : "BezierCurve.002",
            "primitives" : [
                {
                    "attributes" : {
                        "POSITION" : 8,
                        "NORMAL" : 9,
                        "TEXCOORD_0" : 10
                    },
                    "indices" : 7,
                    "material" : 0
                }
            ]
        }
    ],
    "accessors" : [
        {
            "bufferView" : 0,
            "componentType" : 5126,
            "count" : 50,
            "max" : [
                1.8516641855239868,
                0.9094839096069336,
                0.16790318489074707
            ],
            "min" : [
                -1.7723356485366821,
                -0.49382346868515015,
                -0.5027432441711426
            ],
            "type" : "VEC3"
        },
        {
            "bufferView" : 1,
            "componentType" : 5126,
            "count" : 50,
            "type" : "VEC3"
        },
        {
            "bufferView" : 2,
            "componentType" : 5126,
            "count" : 50,
            "type" : "VEC2"
        },
        {
            "bufferView" : 3,
            "componentType" : 5123,
            "count" : 144,
            "type" : "SCALAR"
        },
        {
            "bufferView" : 4,
            "componentType" : 5126,
            "count" : 50,
            "max" : [
                1.7252169847488403,
                1.3457999229431152,
                0.1363062858581543
            ],
            "min" : [
                -1.6585406064987183,
                -0.40000003576278687,
                -0.8034117221832275
            ],
            "type" : "VEC3"
        },
        {
            "bufferView" : 5,
            "componentType" : 5126,
            "count" : 50,
            "type" : "VEC3"
        },
        {
            "bufferView" : 6,
            "componentType" : 5126,
            "count" : 50,
            "type" : "VEC2"
        },
        {
            "bufferView" : 7,
            "componentType" : 5123,
            "count" : 144,
            "type" : "SCALAR"
        },
        {
            "bufferView" : 8,
            "componentType" : 5126,
            "count" : 50,
            "max" : [
                1.6313319206237793,
                1.148334264755249,
                0.526116132736206
            ],
            "min" : [
                -1.6585406064987183,
                -0.40000003576278687,
                -0.07221734523773193
            ],
            "type" : "VEC3"
        },
        {
            "bufferView" : 9,
            "componentType" : 5126,
            "count" : 50,
            "type" : "VEC3"
        },
        {
            "bufferView" : 10,
            "componentType" : 5126,
            "count" : 50,
            "type" : "VEC2"
        }
    ],
    "bufferViews" : [
        {
            "buffer" : 0,
            "byteLength" : 600,
            "byteOffset" : 0
        },
        {
            "buffer" : 0,
            "byteLength" : 600,
            "byteOffset" : 600
        },
        {
            "buffer" : 0,
            "byteLength" : 400,
            "byteOffset" : 1200
        },
        {
            "buffer" : 0,
            "byteLength" : 288,
            "byteOffset" : 1600
        },
        {
            "buffer" : 0,
            "byteLength" : 600,
            "byteOffset" : 1888
        },
        {
            "buffer" : 0,
            "byteLength" : 600,
            "byteOffset" : 2488
        },
        {
            "buffer" : 0,
            "byteLength" : 400,
            "byteOffset" : 3088
        },
        {
            "buffer" : 0,
            "byteLength" : 288,
            "byteOffset" : 3488
        },
        {
            "buffer" : 0,
            "byteLength" : 600,
            "byteOffset" : 3776
        },
        {
            "buffer" : 0,
            "byteLength" : 600,
            "byteOffset" : 4376
        },
        {
            "buffer" : 0,
            "byteLength" : 400,
            "byteOffset" : 4976
        }
    ],
    "buffers" : [
        {
            "byteLength" : 5376,
            "uri" : "data:application/octet-stream;base64,"
        }
    ]
}
